<svg width="390" height="62" viewBox="0 0 390 62" fill="none" xmlns="http://www.w3.org/2000/svg">
  <path d="M0 0H390V62H0V0Z" fill="#65874D"/>
  <path d="M113.145 42H112.125V33.194H113.145V34.52H113.179C113.44 34.01 113.814 33.6247 114.301 33.364C114.788 33.092 115.321 32.956 115.899 32.956C116.307 32.956 116.653 33.0013 116.936 33.092C117.219 33.1827 117.457 33.3073 117.65 33.466C117.854 33.6133 118.018 33.789 118.143 33.993C118.279 34.197 118.392 34.418 118.483 34.656C118.778 34.078 119.169 33.653 119.656 33.381C120.155 33.0977 120.721 32.956 121.356 32.956C121.957 32.956 122.433 33.058 122.784 33.262C123.147 33.4547 123.424 33.7153 123.617 34.044C123.81 34.3613 123.934 34.7297 123.991 35.149C124.059 35.5683 124.093 35.999 124.093 36.441V42H123.073V35.914C123.073 35.2793 122.937 34.7807 122.665 34.418C122.404 34.0553 121.911 33.874 121.186 33.874C120.812 33.874 120.449 33.959 120.098 34.129C119.758 34.2877 119.458 34.537 119.197 34.877C119.084 35.0243 118.987 35.2 118.908 35.404C118.84 35.5967 118.783 35.8007 118.738 36.016C118.693 36.2313 118.659 36.4467 118.636 36.662C118.625 36.8773 118.619 37.0757 118.619 37.257V42H117.599V35.914C117.599 35.2793 117.463 34.7807 117.191 34.418C116.93 34.0553 116.437 33.874 115.712 33.874C115.338 33.874 114.975 33.959 114.624 34.129C114.284 34.2877 113.984 34.537 113.723 34.877C113.61 35.0243 113.513 35.2 113.434 35.404C113.366 35.5967 113.309 35.8007 113.264 36.016C113.219 36.2313 113.185 36.4467 113.162 36.662C113.151 36.8773 113.145 37.0757 113.145 37.257V42Z" fill="white"/>
  <path d="M132.389 33.194H133.409V42H132.389V40.776C132.253 40.9347 132.1 41.099 131.93 41.269C131.76 41.439 131.562 41.5977 131.335 41.745C131.12 41.881 130.865 41.9943 130.57 42.085C130.276 42.187 129.936 42.238 129.55 42.238C128.961 42.238 128.468 42.1587 128.071 42C127.675 41.83 127.352 41.5977 127.102 41.303C126.864 41.0083 126.689 40.6683 126.575 40.283C126.473 39.8863 126.422 39.4557 126.422 38.991V33.194H127.442V38.974C127.442 39.7333 127.618 40.317 127.969 40.725C128.321 41.1217 128.899 41.32 129.703 41.32C130.123 41.32 130.497 41.2407 130.825 41.082C131.165 40.912 131.449 40.6797 131.675 40.385C131.902 40.0903 132.078 39.739 132.202 39.331C132.327 38.923 132.389 38.4753 132.389 37.988V33.194Z" fill="white"/>
  <path d="M136.889 42H135.869V33.194H136.889V34.418C137.297 33.9873 137.716 33.636 138.147 33.364C138.589 33.092 139.116 32.956 139.728 32.956C140.272 32.956 140.776 33.0523 141.241 33.245C141.705 33.4263 142.096 33.7493 142.414 34.214C142.629 34.5313 142.754 34.86 142.788 35.2C142.833 35.5287 142.856 35.8743 142.856 36.237V42H141.836V36.254C141.836 35.4607 141.66 34.8657 141.309 34.469C140.957 34.0723 140.374 33.874 139.558 33.874C139.24 33.874 138.951 33.925 138.691 34.027C138.43 34.1177 138.192 34.2423 137.977 34.401C137.773 34.5597 137.597 34.741 137.45 34.945C137.302 35.149 137.189 35.3643 137.11 35.591C137.008 35.8743 136.945 36.1463 136.923 36.407C136.9 36.6677 136.889 36.951 136.889 37.257V42Z" fill="white"/>
  <path d="M152.115 37.563C152.115 37.0643 152.047 36.594 151.911 36.152C151.775 35.6987 151.576 35.3077 151.316 34.979C151.066 34.639 150.755 34.3727 150.381 34.18C150.018 33.976 149.604 33.874 149.14 33.874C148.607 33.874 148.148 33.9817 147.763 34.197C147.377 34.401 147.06 34.6843 146.811 35.047C146.561 35.4097 146.38 35.8347 146.267 36.322C146.153 36.798 146.108 37.3137 146.131 37.869C146.131 38.4243 146.204 38.9173 146.352 39.348C146.51 39.7673 146.726 40.1243 146.998 40.419C147.27 40.7137 147.587 40.9403 147.95 41.099C148.312 41.2463 148.709 41.32 149.14 41.32C149.616 41.32 150.041 41.2237 150.415 41.031C150.789 40.8383 151.1 40.5777 151.35 40.249C151.599 39.909 151.786 39.5123 151.911 39.059C152.047 38.5943 152.115 38.0957 152.115 37.563ZM152.115 29.76H153.135V42H152.115V40.453H152.081C151.933 40.7477 151.741 41.0083 151.503 41.235C151.276 41.4503 151.021 41.6317 150.738 41.779C150.466 41.9263 150.182 42.0397 149.888 42.119C149.593 42.1983 149.304 42.238 149.021 42.238C148.307 42.238 147.701 42.119 147.202 41.881C146.703 41.643 146.289 41.32 145.961 40.912C145.643 40.4927 145.411 39.9997 145.264 39.433C145.116 38.8663 145.043 38.26 145.043 37.614C145.043 37.002 145.122 36.4127 145.281 35.846C145.439 35.2793 145.677 34.7863 145.995 34.367C146.323 33.9363 146.731 33.5963 147.219 33.347C147.717 33.0863 148.301 32.956 148.97 32.956C149.593 32.956 150.188 33.0977 150.755 33.381C151.333 33.653 151.786 34.061 152.115 34.605V29.76Z" fill="white"/>
  <path d="M162.082 36.985C162.082 36.5543 162.02 36.152 161.895 35.778C161.782 35.3927 161.606 35.064 161.368 34.792C161.142 34.5087 160.853 34.2877 160.501 34.129C160.15 33.959 159.748 33.874 159.294 33.874C158.841 33.874 158.439 33.959 158.087 34.129C157.747 34.299 157.453 34.5257 157.203 34.809C156.965 35.0923 156.773 35.421 156.625 35.795C156.478 36.169 156.382 36.5657 156.336 36.985H162.082ZM156.336 37.835C156.336 38.311 156.399 38.7643 156.523 39.195C156.648 39.6143 156.829 39.9827 157.067 40.3C157.317 40.606 157.628 40.8553 158.002 41.048C158.376 41.2293 158.807 41.32 159.294 41.32C159.963 41.32 160.535 41.1443 161.011 40.793C161.487 40.4417 161.805 39.943 161.963 39.297H163.102C162.978 39.7163 162.813 40.1073 162.609 40.47C162.405 40.8213 162.15 41.133 161.844 41.405C161.538 41.6657 161.176 41.8697 160.756 42.017C160.337 42.1643 159.85 42.238 159.294 42.238C158.592 42.238 157.985 42.119 157.475 41.881C156.965 41.643 156.546 41.32 156.217 40.912C155.889 40.4927 155.645 40.0053 155.486 39.45C155.328 38.8833 155.248 38.277 155.248 37.631C155.248 36.985 155.339 36.3787 155.52 35.812C155.713 35.2453 155.979 34.7523 156.319 34.333C156.671 33.9023 157.096 33.568 157.594 33.33C158.093 33.0807 158.66 32.956 159.294 32.956C160.507 32.956 161.459 33.3753 162.15 34.214C162.842 35.0413 163.182 36.2483 163.17 37.835H156.336ZM157.407 30.338H158.512V32.072H157.407V30.338ZM160.11 30.338H161.215V32.072H160.11V30.338Z" fill="white"/>
  <path d="M165.749 39.246C165.907 40.0053 166.191 40.5437 166.599 40.861C167.018 41.167 167.613 41.32 168.384 41.32C168.758 41.32 169.081 41.2747 169.353 41.184C169.625 41.0933 169.846 40.9743 170.016 40.827C170.197 40.6683 170.333 40.4927 170.424 40.3C170.514 40.1073 170.56 39.9033 170.56 39.688C170.56 39.2573 170.418 38.94 170.135 38.736C169.863 38.5207 169.517 38.3563 169.098 38.243C168.678 38.1183 168.225 38.0163 167.738 37.937C167.25 37.8463 166.797 37.716 166.378 37.546C165.958 37.376 165.607 37.1323 165.324 36.815C165.052 36.4977 164.916 36.05 164.916 35.472C164.916 34.7353 165.182 34.1347 165.715 33.67C166.259 33.194 167.024 32.956 168.01 32.956C168.962 32.956 169.732 33.1713 170.322 33.602C170.922 34.0213 171.285 34.7297 171.41 35.727H170.373C170.282 35.047 170.021 34.571 169.591 34.299C169.171 34.0157 168.639 33.874 167.993 33.874C167.347 33.874 166.854 34.0157 166.514 34.299C166.174 34.571 166.004 34.9337 166.004 35.387C166.004 35.7837 166.14 36.0897 166.412 36.305C166.695 36.509 167.046 36.679 167.466 36.815C167.885 36.9397 168.338 37.053 168.826 37.155C169.313 37.257 169.766 37.4043 170.186 37.597C170.605 37.7783 170.951 38.0277 171.223 38.345C171.506 38.6623 171.648 39.1043 171.648 39.671C171.648 40.0903 171.557 40.4643 171.376 40.793C171.194 41.1103 170.945 41.3767 170.628 41.592C170.31 41.8073 169.931 41.966 169.489 42.068C169.058 42.1813 168.582 42.238 168.061 42.238C167.539 42.238 167.075 42.1587 166.667 42C166.27 41.8527 165.93 41.643 165.647 41.371C165.363 41.099 165.142 40.7817 164.984 40.419C164.825 40.0563 164.734 39.6653 164.712 39.246H165.749Z" fill="white"/>
  <path d="M179.621 33.194H180.641V42H179.621V40.776C179.485 40.9347 179.332 41.099 179.162 41.269C178.992 41.439 178.793 41.5977 178.567 41.745C178.351 41.881 178.096 41.9943 177.802 42.085C177.507 42.187 177.167 42.238 176.782 42.238C176.192 42.238 175.699 42.1587 175.303 42C174.906 41.83 174.583 41.5977 174.334 41.303C174.096 41.0083 173.92 40.6683 173.807 40.283C173.705 39.8863 173.654 39.4557 173.654 38.991V33.194H174.674V38.974C174.674 39.7333 174.849 40.317 175.201 40.725C175.552 41.1217 176.13 41.32 176.935 41.32C177.354 41.32 177.728 41.2407 178.057 41.082C178.397 40.912 178.68 40.6797 178.907 40.385C179.133 40.0903 179.309 39.739 179.434 39.331C179.558 38.923 179.621 38.4753 179.621 37.988V33.194Z" fill="white"/>
  <path d="M188.863 37.376C188.432 37.5573 187.996 37.6763 187.554 37.733C187.112 37.7897 186.67 37.835 186.228 37.869C185.446 37.9257 184.834 38.1013 184.392 38.396C183.961 38.6907 183.746 39.1383 183.746 39.739C183.746 40.011 183.797 40.249 183.899 40.453C184.012 40.6457 184.154 40.81 184.324 40.946C184.505 41.0707 184.709 41.167 184.936 41.235C185.174 41.2917 185.412 41.32 185.65 41.32C186.058 41.32 186.455 41.269 186.84 41.167C187.225 41.065 187.565 40.912 187.86 40.708C188.166 40.4927 188.41 40.2263 188.591 39.909C188.772 39.5803 188.863 39.195 188.863 38.753V37.376ZM187.146 36.866C187.339 36.8433 187.565 36.8093 187.826 36.764C188.098 36.7187 188.319 36.6563 188.489 36.577C188.659 36.4977 188.761 36.3673 188.795 36.186C188.84 35.9933 188.863 35.8177 188.863 35.659C188.863 35.1377 188.693 34.7127 188.353 34.384C188.024 34.044 187.463 33.874 186.67 33.874C186.319 33.874 185.996 33.908 185.701 33.976C185.406 34.0327 185.146 34.1403 184.919 34.299C184.704 34.4463 184.522 34.6503 184.375 34.911C184.239 35.1603 184.148 35.4777 184.103 35.863H183.066C183.1 35.3417 183.219 34.8997 183.423 34.537C183.627 34.163 183.888 33.8627 184.205 33.636C184.534 33.398 184.908 33.228 185.327 33.126C185.758 33.0127 186.211 32.956 186.687 32.956C187.129 32.956 187.543 33.007 187.928 33.109C188.325 33.1997 188.665 33.3527 188.948 33.568C189.243 33.772 189.469 34.0497 189.628 34.401C189.798 34.7523 189.883 35.183 189.883 35.693V40.487C189.883 40.8837 189.951 41.1387 190.087 41.252C190.234 41.354 190.523 41.3257 190.954 41.167V41.966C190.875 41.9887 190.756 42.0227 190.597 42.068C190.45 42.1133 190.302 42.136 190.155 42.136C189.996 42.136 189.843 42.119 189.696 42.085C189.526 42.0623 189.39 42.0113 189.288 41.932C189.186 41.8413 189.101 41.7393 189.033 41.626C188.976 41.5013 188.937 41.371 188.914 41.235C188.891 41.0877 188.88 40.9347 188.88 40.776C188.449 41.252 187.956 41.6147 187.401 41.864C186.846 42.1133 186.245 42.238 185.599 42.238C185.214 42.238 184.84 42.187 184.477 42.085C184.126 41.983 183.814 41.8243 183.542 41.609C183.27 41.3937 183.055 41.133 182.896 40.827C182.737 40.5097 182.658 40.1357 182.658 39.705C182.658 38.209 183.684 37.325 185.735 37.053L187.146 36.866Z" fill="white"/>
  <path d="M193.617 42H192.597V33.194H193.617V34.843H193.651C193.935 34.1403 194.297 33.653 194.739 33.381C195.193 33.0977 195.788 32.956 196.524 32.956V34.061C195.946 34.0497 195.47 34.1403 195.096 34.333C194.722 34.5257 194.422 34.7863 194.195 35.115C193.98 35.4437 193.827 35.8347 193.736 36.288C193.657 36.73 193.617 37.1947 193.617 37.682V42Z" fill="white"/>
  <path d="M203.959 42H202.939V33.194H203.959V34.418C204.367 33.9873 204.786 33.636 205.217 33.364C205.659 33.092 206.186 32.956 206.798 32.956C207.342 32.956 207.846 33.0523 208.311 33.245C208.775 33.4263 209.167 33.7493 209.484 34.214C209.699 34.5313 209.824 34.86 209.858 35.2C209.903 35.5287 209.926 35.8743 209.926 36.237V42H208.906V36.254C208.906 35.4607 208.73 34.8657 208.379 34.469C208.028 34.0723 207.444 33.874 206.628 33.874C206.311 33.874 206.022 33.925 205.761 34.027C205.5 34.1177 205.262 34.2423 205.047 34.401C204.843 34.5597 204.667 34.741 204.52 34.945C204.372 35.149 204.259 35.3643 204.18 35.591C204.078 35.8743 204.016 36.1463 203.993 36.407C203.97 36.6677 203.959 36.951 203.959 37.257V42Z" fill="white"/>
  <path d="M219.185 37.631C219.185 37.0983 219.117 36.6053 218.981 36.152C218.856 35.6873 218.669 35.2907 218.42 34.962C218.171 34.622 217.859 34.3557 217.485 34.163C217.111 33.9703 216.686 33.874 216.21 33.874C215.779 33.874 215.383 33.9533 215.02 34.112C214.657 34.2593 214.34 34.4803 214.068 34.775C213.796 35.0697 213.581 35.4323 213.422 35.863C213.275 36.2823 213.201 36.7697 213.201 37.325C213.178 37.8803 213.224 38.4017 213.337 38.889C213.45 39.365 213.632 39.7843 213.881 40.147C214.13 40.5097 214.448 40.7987 214.833 41.014C215.218 41.218 215.677 41.32 216.21 41.32C216.675 41.32 217.088 41.2237 217.451 41.031C217.825 40.827 218.137 40.5607 218.386 40.232C218.647 39.892 218.845 39.501 218.981 39.059C219.117 38.6057 219.185 38.1297 219.185 37.631ZM219.185 33.194H220.205V41.15C220.205 41.7393 220.143 42.3003 220.018 42.833C219.905 43.377 219.695 43.853 219.389 44.261C219.083 44.669 218.664 44.992 218.131 45.23C217.598 45.4793 216.913 45.604 216.074 45.604C215.428 45.604 214.873 45.519 214.408 45.349C213.943 45.1903 213.564 44.9863 213.269 44.737C212.974 44.4877 212.748 44.21 212.589 43.904C212.442 43.6093 212.362 43.3317 212.351 43.071H213.439C213.518 43.3997 213.643 43.666 213.813 43.87C213.983 44.0853 214.181 44.2497 214.408 44.363C214.646 44.4877 214.907 44.5727 215.19 44.618C215.473 44.6633 215.768 44.686 216.074 44.686C216.765 44.686 217.321 44.567 217.74 44.329C218.159 44.091 218.477 43.7793 218.692 43.394C218.907 43.0087 219.043 42.5723 219.1 42.085C219.168 41.5977 219.196 41.099 219.185 40.589C218.856 41.133 218.403 41.5467 217.825 41.83C217.258 42.102 216.663 42.238 216.04 42.238C215.371 42.238 214.788 42.1133 214.289 41.864C213.802 41.6033 213.394 41.2633 213.065 40.844C212.748 40.4133 212.51 39.9147 212.351 39.348C212.192 38.7813 212.113 38.192 212.113 37.58C212.113 36.934 212.187 36.3277 212.334 35.761C212.481 35.1943 212.714 34.707 213.031 34.299C213.36 33.8797 213.773 33.551 214.272 33.313C214.771 33.075 215.377 32.956 216.091 32.956C216.374 32.956 216.663 32.9957 216.958 33.075C217.253 33.1543 217.536 33.2677 217.808 33.415C218.091 33.5623 218.346 33.7493 218.573 33.976C218.811 34.2027 219.004 34.4577 219.151 34.741H219.185V33.194Z" fill="white"/>
  <path d="M228.541 37.376C228.11 37.5573 227.674 37.6763 227.232 37.733C226.79 37.7897 226.348 37.835 225.906 37.869C225.124 37.9257 224.512 38.1013 224.07 38.396C223.639 38.6907 223.424 39.1383 223.424 39.739C223.424 40.011 223.475 40.249 223.577 40.453C223.69 40.6457 223.832 40.81 224.002 40.946C224.183 41.0707 224.387 41.167 224.614 41.235C224.852 41.2917 225.09 41.32 225.328 41.32C225.736 41.32 226.132 41.269 226.518 41.167C226.903 41.065 227.243 40.912 227.538 40.708C227.844 40.4927 228.087 40.2263 228.269 39.909C228.45 39.5803 228.541 39.195 228.541 38.753V37.376ZM226.824 36.866C227.016 36.8433 227.243 36.8093 227.504 36.764C227.776 36.7187 227.997 36.6563 228.167 36.577C228.337 36.4977 228.439 36.3673 228.473 36.186C228.518 35.9933 228.541 35.8177 228.541 35.659C228.541 35.1377 228.371 34.7127 228.031 34.384C227.702 34.044 227.141 33.874 226.348 33.874C225.996 33.874 225.673 33.908 225.379 33.976C225.084 34.0327 224.823 34.1403 224.597 34.299C224.381 34.4463 224.2 34.6503 224.053 34.911C223.917 35.1603 223.826 35.4777 223.781 35.863H222.744C222.778 35.3417 222.897 34.8997 223.101 34.537C223.305 34.163 223.565 33.8627 223.883 33.636C224.211 33.398 224.585 33.228 225.005 33.126C225.435 33.0127 225.889 32.956 226.365 32.956C226.807 32.956 227.22 33.007 227.606 33.109C228.002 33.1997 228.342 33.3527 228.626 33.568C228.92 33.772 229.147 34.0497 229.306 34.401C229.476 34.7523 229.561 35.183 229.561 35.693V40.487C229.561 40.8837 229.629 41.1387 229.765 41.252C229.912 41.354 230.201 41.3257 230.632 41.167V41.966C230.552 41.9887 230.433 42.0227 230.275 42.068C230.127 42.1133 229.98 42.136 229.833 42.136C229.674 42.136 229.521 42.119 229.374 42.085C229.204 42.0623 229.068 42.0113 228.966 41.932C228.864 41.8413 228.779 41.7393 228.711 41.626C228.654 41.5013 228.614 41.371 228.592 41.235C228.569 41.0877 228.558 40.9347 228.558 40.776C228.127 41.252 227.634 41.6147 227.079 41.864C226.523 42.1133 225.923 42.238 225.277 42.238C224.891 42.238 224.517 42.187 224.155 42.085C223.803 41.983 223.492 41.8243 223.22 41.609C222.948 41.3937 222.732 41.133 222.574 40.827C222.415 40.5097 222.336 40.1357 222.336 39.705C222.336 38.209 223.361 37.325 225.413 37.053L226.824 36.866Z" fill="white"/>
  <path d="M328.388 37.7025V43.827C328.388 44.329 328.576 44.6302 328.95 44.831C329.324 45.0318 329.978 45.2326 331.007 45.333C331.288 45.333 331.475 45.6342 331.475 45.9354C331.475 46.1362 331.475 46.337 331.381 46.5378C330.82 46.5378 330.072 46.4374 329.23 46.4374H326.331C325.583 46.4374 324.928 46.4374 324.273 46.5378C323.619 46.5378 322.964 46.6382 322.403 46.6382C322.403 46.5378 322.309 46.4374 322.309 46.337V46.0358C322.309 45.6342 322.403 45.4334 322.683 45.4334C323.151 45.333 323.432 45.2326 323.712 45.2326C323.993 45.1322 324.18 45.0318 324.273 44.9314C324.367 44.831 324.554 44.7306 324.554 44.5298C324.647 44.4294 324.647 44.2286 324.647 44.0278L324.554 27.9637C324.554 27.5621 324.367 27.2609 324.086 27.0601C323.806 26.8593 323.245 26.7589 322.403 26.6585C322.309 26.6585 322.216 26.5581 322.122 26.4577C322.029 26.3573 322.029 26.2569 322.029 26.0561V25.7549C322.029 25.6545 322.029 25.5541 322.122 25.4537C322.683 25.4537 323.338 25.5541 324.086 25.5541H330.633C332.784 25.5541 334.468 26.0561 335.683 27.0601C336.899 28.0641 337.554 29.4697 337.554 31.3773C337.554 32.1805 337.367 32.9837 337.086 33.7869C336.806 34.5901 336.338 35.1925 335.777 35.7949C335.216 36.3973 334.468 36.7989 333.626 37.2005C332.784 37.5017 331.849 37.7025 330.727 37.7025H328.388ZM329.23 36.0961C330.446 36.0961 331.475 35.7949 332.223 35.0921C332.971 34.3893 333.345 33.2849 333.345 31.6785C333.345 30.2729 333.065 29.1685 332.41 28.3653C331.849 27.5621 330.727 27.1605 329.23 27.1605H328.295L328.388 36.0961H329.23ZM338.022 35.9957C338.022 34.4897 338.302 33.0841 338.77 31.7789C339.331 30.4737 339.986 29.3693 340.921 28.3653C341.856 27.3613 342.885 26.5581 344.194 26.0561C345.41 25.4537 346.719 25.1525 348.122 25.1525C349.619 25.1525 350.928 25.3533 352.144 25.9557C353.36 26.4577 354.482 27.2609 355.417 28.1645C356.353 29.1685 357.101 30.2729 357.568 31.5781C358.129 32.8833 358.41 34.3893 358.41 35.8953C358.41 37.4013 358.129 38.8069 357.662 40.1121C357.101 41.4174 356.446 42.6222 355.511 43.5258C354.576 44.4294 353.547 45.333 352.237 45.835C351.022 46.4374 349.619 46.7386 348.216 46.7386C346.719 46.7386 345.41 46.5378 344.194 45.9354C342.978 45.4334 341.856 44.6302 340.921 43.7266C339.986 42.7226 339.331 41.6182 338.77 40.313C338.302 39.0077 338.115 37.6021 338.022 35.9957ZM348.777 45.0318C349.619 45.0318 350.367 44.831 351.115 44.4294C351.77 44.0278 352.424 43.5258 352.892 42.823C353.36 42.1202 353.734 41.317 354.014 40.4133C354.295 39.5097 354.388 38.5057 354.388 37.5017C354.388 35.9957 354.201 34.5901 353.921 33.2849C353.64 31.9797 353.266 30.8753 352.705 29.8713C352.144 28.9677 351.489 28.1645 350.647 27.6625C349.806 27.1605 348.871 26.8593 347.748 26.8593C347 26.8593 346.345 27.0601 345.691 27.3613C345.036 27.6625 344.475 28.1645 343.914 28.7669C343.446 29.3693 342.978 30.1725 342.698 31.0761C342.417 31.9797 342.23 32.9837 342.23 34.0881C342.23 35.6945 342.417 37.1001 342.698 38.5057C342.978 39.8109 343.446 41.0158 344.007 42.0198C344.568 43.0238 345.223 43.7266 346.065 44.329C346.813 44.831 347.748 45.0318 348.777 45.0318ZM372.158 30.4737C371.971 30.5741 371.784 30.5741 371.597 30.5741C371.317 30.5741 371.13 30.4737 371.036 30.3733C370.942 30.2729 370.849 30.1725 370.755 29.9717C370.288 28.7669 369.727 27.8633 368.978 27.3613C368.23 26.8593 367.295 26.5581 365.986 26.5581C365.05 26.5581 364.209 26.8593 363.554 27.3613C362.899 27.8633 362.525 28.6665 362.525 29.6705C362.525 30.4737 362.806 31.0761 363.273 31.5781C363.835 32.0801 364.396 32.4817 365.237 32.8833C365.986 33.2849 366.827 33.5861 367.763 33.8873C368.698 34.1885 369.54 34.6905 370.288 35.1925C371.036 35.6945 371.691 36.3973 372.252 37.1001C372.813 37.9033 373 38.9073 373 40.1121C373 40.9154 372.906 41.7186 372.626 42.5218C372.345 43.325 371.971 43.9274 371.41 44.5298C370.849 45.1322 370.101 45.6342 369.259 45.9354C368.417 46.2366 367.388 46.4374 366.173 46.4374C364.863 46.4374 363.647 46.337 362.619 46.0358C361.59 45.7346 360.655 45.4334 360 45.0318L359.719 42.321C359.626 41.4174 359.439 40.6142 359.252 39.7105C359.439 39.6101 359.719 39.6101 359.906 39.6101C360.187 39.6101 360.374 39.6101 360.468 39.7105C360.561 39.8109 360.655 40.0117 360.748 40.2125C361.029 41.0158 361.309 41.7186 361.683 42.321C361.964 42.9234 362.338 43.4254 362.806 43.7266C363.273 44.1282 363.741 44.329 364.302 44.5298C364.863 44.7306 365.518 44.7306 366.266 44.7306C366.921 44.7306 367.388 44.6302 367.856 44.4294C368.324 44.2286 368.698 44.0278 368.978 43.7266C369.259 43.4254 369.446 43.0238 369.633 42.6222C369.727 42.2206 369.82 41.819 369.82 41.317C369.82 40.4133 369.54 39.7105 369.072 39.1081C368.604 38.6061 367.95 38.1041 367.201 37.8029C366.453 37.5017 365.705 37.1001 364.77 36.7989C363.928 36.4977 363.086 36.0961 362.338 35.5941C361.59 35.0921 361.029 34.4897 360.468 33.7869C360 32.9837 359.719 31.9797 359.719 30.6745C359.719 29.7709 359.813 29.0681 360.187 28.2649C360.468 27.5621 360.935 26.8593 361.496 26.3573C362.058 25.8553 362.712 25.3533 363.554 25.0521C364.302 24.7509 365.237 24.5501 366.266 24.5501C367.108 24.5501 367.95 24.6505 368.791 24.8513C369.633 25.0521 370.662 25.3533 371.691 25.7549C371.691 26.3573 371.784 27.1605 371.878 27.9637C371.971 29.1685 372.065 29.8713 372.158 30.4737Z" fill="white"/>
  <path d="M284.525 41.9194C284.525 42.321 284.525 42.6222 284.619 42.9234C284.712 43.2246 284.806 43.4254 284.993 43.6262C285.18 43.827 285.46 43.9274 285.741 44.1282C286.022 44.2286 286.489 44.329 286.957 44.4294C287.331 44.5298 287.518 44.7306 287.518 45.0318C287.518 45.2326 287.518 45.4334 287.424 45.7346C287.05 45.7346 286.489 45.7346 285.835 45.835C285.18 45.835 284.619 45.9354 284.151 46.0358C283.496 46.1362 282.842 46.337 282.374 46.4374C281.906 46.5378 281.532 46.6382 281.252 46.6382C280.784 46.6382 280.597 46.4374 280.597 45.9354V42.2206C280.129 42.823 279.755 43.4254 279.288 44.0278C278.82 44.6302 278.353 45.1322 277.791 45.5338C277.23 45.9354 276.576 46.337 275.827 46.5378C275.079 46.839 274.237 46.9394 273.209 46.9394C272.18 46.9394 271.151 46.7386 270.216 46.2366C269.281 45.7346 268.439 45.1322 267.691 44.2286C266.942 43.325 266.381 42.2206 265.914 40.9154C265.446 39.6101 265.259 38.1041 265.259 36.4977C265.259 34.6905 265.54 33.0841 266.194 31.6785C266.849 30.2729 267.597 29.0681 268.532 28.1645C269.468 27.1605 270.496 26.4577 271.619 25.9557C272.741 25.4537 273.77 25.1525 274.705 25.1525C275.827 25.1525 276.856 25.2529 277.791 25.5541C278.727 25.7549 279.568 26.1565 280.41 26.4577V17.2208C280.41 16.2168 280.223 15.514 279.942 15.1124C279.662 14.7108 278.914 14.4096 277.885 14.3092C277.511 14.2088 277.324 14.008 277.324 13.6064C277.324 13.4056 277.324 13.2048 277.417 12.9036C277.791 12.9036 278.353 12.9036 279.101 12.8032C279.849 12.8032 280.41 12.7028 280.878 12.6024C281.626 12.502 282.187 12.4016 282.748 12.2008C283.309 12 283.683 12 283.964 12C284.432 12 284.619 12.2008 284.619 12.7028C284.619 13.2048 284.619 13.9076 284.525 14.6104C284.432 15.3132 284.432 16.2168 284.432 17.2208V41.9194H284.525ZM280.691 29.5701C279.942 28.7669 279.101 28.0641 278.165 27.5621C277.23 27.0601 276.201 26.8593 275.079 26.8593C273.302 26.8593 271.993 27.6625 271.151 29.1685C270.216 30.7749 269.842 32.6825 269.842 35.1925C269.842 36.3973 269.935 37.6021 270.216 38.7065C270.496 39.8109 270.871 40.815 271.338 41.6182C271.806 42.4214 272.46 43.1242 273.115 43.6262C273.863 44.1282 274.612 44.329 275.453 44.329C276.014 44.329 276.669 44.1282 277.23 43.7266C277.791 43.325 278.353 42.823 278.914 42.2206C279.381 41.6182 279.849 40.9154 280.129 40.2126C280.41 39.4093 280.597 38.7065 280.597 37.9033V29.5701H280.691Z" fill="#19232E"/>
  <path d="M302.201 41.7186C302.388 41.5178 302.669 41.4174 302.856 41.4174C303.137 41.4174 303.417 41.7186 303.698 42.2206C303.324 42.823 302.856 43.4254 302.295 43.9274C301.734 44.4294 301.173 44.9314 300.424 45.4334C299.676 45.835 298.928 46.2366 297.993 46.4374C297.058 46.7386 296.029 46.839 294.906 46.839C293.691 46.839 292.568 46.6382 291.446 46.2366C290.324 45.835 289.388 45.1322 288.547 44.329C287.705 43.4254 287.05 42.321 286.583 41.0158C286.115 39.7105 285.835 38.2045 285.835 36.3973C285.835 34.7909 286.115 33.1845 286.676 31.7789C287.237 30.3733 287.986 29.1685 288.921 28.1645C289.856 27.1605 290.885 26.3573 292.007 25.8553C293.13 25.3533 294.252 25.0521 295.281 25.0521C298.086 25.0521 300.144 25.9557 301.453 27.6625C302.763 29.3693 303.417 31.6785 303.417 34.4897C303.417 34.6905 303.324 34.7909 303.137 34.7909L290.043 35.3933C290.043 36.6985 290.23 37.8029 290.511 38.9073C290.885 40.0117 291.353 40.9154 291.914 41.7186C292.475 42.5218 293.223 43.1242 294.065 43.5258C294.906 43.9274 295.935 44.2286 296.964 44.2286C297.899 44.2286 298.835 44.0278 299.77 43.5258C300.892 43.0238 301.64 42.4214 302.201 41.7186ZM294.906 26.8593C293.41 26.8593 292.194 27.4617 291.353 28.7669C290.511 30.0721 290.043 31.6785 290.043 33.7869L298.554 33.3853C299.022 33.3853 299.209 33.1845 299.209 32.7829C299.209 32.1805 299.115 31.4777 298.928 30.8753C298.741 30.1725 298.46 29.5701 298.086 28.9677C297.712 28.3653 297.245 27.9637 296.683 27.5621C296.309 27.0601 295.655 26.8593 294.906 26.8593Z" fill="#19232E"/>
  <path d="M313.05 40.9154C314.547 37.1001 315.576 34.0881 316.324 31.9797C317.072 29.8713 317.353 28.5661 317.353 28.0641C317.353 27.7629 317.259 27.4617 317.072 27.2609C316.885 27.0601 316.417 26.8593 315.669 26.7589C315.295 26.7589 315.108 26.5581 315.108 26.1565V25.8553C315.108 25.7549 315.201 25.6545 315.201 25.5541C316.417 25.6545 317.633 25.6545 318.942 25.6545H320.813C321.374 25.6545 321.842 25.5541 322.309 25.5541C322.403 25.8553 322.403 26.0561 322.403 26.1565C322.403 26.3573 322.309 26.4577 322.216 26.5581C322.122 26.6585 321.935 26.7589 321.748 26.8593C321.187 27.2609 320.719 27.5621 320.158 27.8633C319.597 28.1645 319.223 28.6665 319.036 29.2689L312.489 46.7386C312.302 46.839 312.115 46.839 311.835 46.839C311.46 46.839 311.273 46.6382 311.086 46.337C310.993 46.0358 310.712 45.5338 310.432 44.7306L304.259 29.2689C304.072 28.7669 303.885 28.3653 303.791 28.1645C303.604 27.8633 303.511 27.6625 303.324 27.4617C303.137 27.2609 302.95 27.1605 302.669 27.0601C302.388 26.9597 302.014 26.8593 301.64 26.8593C301.266 26.8593 301.079 26.5581 301.079 26.1565C301.079 25.9557 301.079 25.7549 301.173 25.5541C301.921 25.6545 302.669 25.6545 303.324 25.6545H308.187C308.935 25.6545 309.683 25.5541 310.525 25.5541C310.619 25.7549 310.619 25.9557 310.619 26.1565C310.619 26.5581 310.432 26.7589 310.058 26.7589C309.309 26.8593 308.842 27.0601 308.655 27.1605C308.468 27.2609 308.281 27.4617 308.281 27.7629C308.281 27.9637 308.374 28.3653 308.561 28.9677C308.748 29.5701 309.029 30.3733 309.403 31.4777L313.05 40.9154Z" fill="#19232E"/>
  <path d="M263.295 35.9957C263.295 42.0197 258.712 46.839 253.194 46.839C247.676 46.839 243 41.9193 243 35.9957C243 30.0721 247.583 25.1524 253.101 25.1524C258.619 25.1524 263.295 29.9717 263.295 35.9957Z" fill="white"/>
  <path d="M251.043 31.8793C251.23 32.1805 251.417 32.4817 251.417 32.6825C251.417 32.7829 251.324 32.8833 251.23 32.9837L246.741 36.0961L251.417 39.4093C251.23 39.9113 251.043 40.2125 250.856 40.2125C250.763 40.2125 250.763 40.2125 250.669 40.1121L244.496 36.3973C244.496 36.1965 244.403 36.0961 244.403 35.9957C244.403 35.8953 244.403 35.7949 244.496 35.7949L251.043 31.8793Z" fill="#65874D"/>
  <path d="M251.043 31.8793C251.23 32.1805 251.417 32.4817 251.417 32.6825C251.417 32.7829 251.324 32.8833 251.23 32.9837L246.741 36.0961L251.417 39.4093C251.23 39.9113 251.043 40.2125 250.856 40.2125C250.763 40.2125 250.763 40.2125 250.669 40.1121L244.496 36.3973C244.496 36.1965 244.403 36.0961 244.403 35.9957C244.403 35.8953 244.403 35.7949 244.496 35.7949L251.043 31.8793ZM252.353 40.5137C252.165 40.5137 251.978 40.4133 251.885 40.4133C251.791 40.4133 251.791 40.3129 251.791 40.2125V40.1121L254.036 31.2769C254.223 31.2769 254.41 31.3773 254.504 31.3773C254.597 31.4777 254.597 31.4777 254.597 31.5781V31.6785L252.353 40.5137Z" fill="#65874D"/>
  <path d="M252.353 40.5137C252.165 40.5137 251.978 40.4133 251.885 40.4133C251.791 40.4133 251.791 40.3129 251.791 40.2125V40.1121L254.036 31.2769C254.223 31.2769 254.41 31.3773 254.504 31.3773C254.597 31.4777 254.597 31.4777 254.597 31.5781V31.6785L252.353 40.5137ZM261.705 35.7949C261.799 35.7949 261.799 35.8953 261.799 35.9957C261.799 36.0961 261.799 36.1965 261.705 36.3973L255.439 40.2125L255.345 40.3129C255.158 40.3129 254.971 40.0117 254.784 39.5097L259.647 36.0961L255.065 32.8833C254.971 32.7829 254.878 32.6825 254.878 32.5821C254.878 32.3813 254.971 32.1805 255.158 31.7789L261.705 35.7949Z" fill="#65874D"/>
  <path d="M261.705 35.7949C261.799 35.7949 261.799 35.8953 261.799 35.9957C261.799 36.0961 261.799 36.1965 261.705 36.3973L255.439 40.2125L255.345 40.3129C255.158 40.3129 254.971 40.0117 254.784 39.5097L259.647 36.0961L255.065 32.8833C254.971 32.7829 254.878 32.6825 254.878 32.5821C254.878 32.3813 254.971 32.1805 255.158 31.7789L261.705 35.7949Z" fill="#65874D"/>
  <path d="M257.216 36.0961C257.216 36.8993 256.561 37.6021 255.813 37.6021C255.065 37.6021 254.41 36.8993 254.41 36.0961C254.41 35.2929 255.065 34.5901 255.813 34.5901C256.561 34.5901 257.216 35.2929 257.216 36.0961Z" fill="#65874D"/>
  <path d="M256.561 36.0961C256.561 36.5981 256.187 36.8993 255.813 36.8993C255.345 36.8993 255.065 36.4977 255.065 36.0961C255.065 35.5941 255.439 35.2929 255.813 35.2929C256.187 35.2929 256.561 35.6945 256.561 36.0961Z" fill="#65874D"/>
</svg>
