<svg width="35" height="36" viewBox="0 0 35 36" fill="none" xmlns="http://www.w3.org/2000/svg">
<path d="M15.9961 0.5C17.001 0.5 17.999 0.5 19.0039 0.5C19.5576 0.582031 20.1113 0.629883 20.6582 0.746094C27.4805 2.20898 32.0195 6.25586 34.2686 12.8594C34.6787 14.0625 34.8564 15.3135 35 16.5645C35 17.5215 35 18.4785 35 19.4355C34.918 20.0098 34.8701 20.5908 34.7471 21.1582C33.2295 28.1924 29.0186 32.7793 22.1484 34.9121C21.1025 35.2402 20.0156 35.3701 18.9287 35.5C17.9717 35.5 17.0146 35.5 16.0576 35.5C15.4697 35.418 14.8818 35.3701 14.3076 35.2471C7.29395 33.709 2.7207 29.5117 0.587891 22.6553C0.266602 21.6299 0.136719 20.5635 0 19.5039C0 18.499 0 17.501 0 16.4961C0.0820312 15.9424 0.129883 15.3887 0.25293 14.8418C1.76367 7.82129 5.96777 3.24805 12.8174 1.09473C13.8496 0.773438 14.9229 0.643555 15.9961 0.5ZM30.5977 18.9297C30.4609 14.083 28.9775 11.3145 27.46 9.53711C27.2617 9.29785 27.1455 9.30469 26.9268 9.5166C20.9658 15.4912 14.9912 21.459 9.0166 27.4199C8.77734 27.6592 8.81152 27.7754 9.05078 27.9736C11.6963 30.1543 14.7109 31.207 18.1426 31.0498C20.7402 30.9268 23.1055 30.1201 25.1836 28.5615C28.875 25.8066 30.6182 22.0811 30.5977 18.9297Z" fill="#333333"/>
</svg>
